<svg width="25" height="18" viewBox="0 0 25 18" fill="none" xmlns="http://www.w3.org/2000/svg">
<rect x="0.5" y="0.5" width="24" height="17" rx="8.5" fill="#FF7255" stroke="white"/>
<path d="M12.1903 14.13C11.549 14.13 10.9206 14.039 10.3053 13.857C9.69863 13.6663 9.1873 13.4063 8.7713 13.077L9.4993 11.764C9.82863 12.0327 10.2273 12.2493 10.6953 12.414C11.1633 12.5787 11.653 12.661 12.1643 12.661C12.771 12.661 13.2433 12.5397 13.5813 12.297C13.9193 12.0457 14.0883 11.7077 14.0883 11.283C14.0883 10.867 13.9323 10.5377 13.6203 10.295C13.3083 10.0523 12.8056 9.931 12.1123 9.931H11.2803V8.774L13.8803 5.68L14.1013 6.317H9.2133V4.9H15.4143V6.031L12.8143 9.125L11.9303 8.605H12.4373C13.5553 8.605 14.3916 8.85633 14.9463 9.359C15.5096 9.853 15.7913 10.49 15.7913 11.27C15.7913 11.7813 15.6613 12.2537 15.4013 12.687C15.1413 13.1203 14.7426 13.4713 14.2053 13.74C13.6766 14 13.005 14.13 12.1903 14.13Z" fill="white"/>
</svg>
