<svg width="25" height="24" viewBox="0 0 25 24" fill="none" xmlns="http://www.w3.org/2000/svg">
<path d="M12.0435 2.75006C8.3535 2.75006 5.34351 5.76006 5.34351 9.45006C5.34351 14.0301 11.3435 20.7701 11.5935 21.0501C11.8335 21.3201 12.2535 21.3201 12.4935 21.0501C12.7535 20.7701 18.7435 14.0301 18.7435 9.45006C18.7435 5.76006 15.7335 2.75006 12.0435 2.75006Z" stroke="#999999" stroke-width="1.5" stroke-linecap="round" stroke-linejoin="round"/>
<path d="M12.4284 11.7853C13.7211 11.5795 14.6022 10.3648 14.3964 9.0721C14.1907 7.77942 12.9759 6.8983 11.6833 7.10406C10.3906 7.30982 9.50945 8.52455 9.71521 9.81723C9.92098 11.1099 11.1357 11.9911 12.4284 11.7853Z" stroke="#999999" stroke-width="1.5" stroke-linecap="round" stroke-linejoin="round"/>
</svg>
